<?xml version="1.0" encoding="UTF-8"?>
<svg width="48px" height="48px" viewBox="0 0 48 48" version="1.1" xmlns="http://www.w3.org/2000/svg" xmlns:xlink="http://www.w3.org/1999/xlink">
    <title>Group</title>
    <defs>
        <polygon id="path-1" points="0.00110386891 0.195834045 46.9302509 0.195834045 46.9302509 47.3238209 0.00110386891 47.3238209"></polygon>
    </defs>
    <g id="Design-3-Destinations" stroke="none" stroke-width="1" fill="none" fill-rule="evenodd">
        <g id="Destination-mobile" transform="translate(-136.000000, -615.000000)">
            <g id="Group" transform="translate(136.000000, 615.000000)">
                <g id="Logo">
                    <mask id="mask-2" fill="white">
                        <use xlink:href="#path-1"></use>
                    </mask>
                    <g id="Clip-8"></g>
                    <path d="M17.9487859,33.3487962 C18.1388966,33.4605179 18.3829743,33.3942215 18.4933612,33.2026987 C18.6037481,33.0111759 18.5387425,32.7656339 18.3474052,32.6563677 C18.1560679,32.5446461 17.9132168,32.6109424 17.8028299,32.8036929 C17.6936695,32.993988 17.7586751,33.2383023 17.9487859,33.3487962 L17.9487859,33.3487962 Z M29.0034198,14.1645974 C28.8120825,14.0541035 28.5692313,14.1191721 28.4588444,14.3106949 C28.3484575,14.5034454 28.4134631,14.7477597 28.6048004,14.8582536 C28.7949112,14.9687475 29.0377623,14.9024512 29.1481492,14.7109284 C29.2585361,14.5206333 29.1935305,14.2750913 29.0034198,14.1645974 L29.0034198,14.1645974 Z M34.7680685,28.1383943 L37.6319951,31.986038 L33.9585646,29.8436837 C34.2884988,29.2727985 34.536256,28.7510217 34.7680685,28.1383943 L34.7680685,28.1383943 Z M33.4826745,23.7505583 C33.4826745,23.3969777 33.7672274,23.1096936 34.1180124,23.1096936 C34.4712504,23.1096936 34.7570298,23.3969777 34.7570298,23.7505583 C34.7570298,24.1041388 34.4712504,24.3901952 34.1180124,24.3901952 C33.7672274,24.3901952 33.4826745,24.1041388 33.4826745,23.7505583 L33.4826745,23.7505583 Z M37.6319951,15.5334942 L33.9573381,17.6770761 C33.6188183,17.0939138 33.3048289,16.627384 32.8914914,16.1203397 L37.6319951,15.5334942 Z M23.4632243,33.0111759 C18.3743887,33.0111759 14.2495985,28.8701096 14.2495985,23.7603799 C14.2495985,18.651878 18.3743887,14.5083562 23.4632243,14.5083562 C28.5508335,14.5083562 32.6756237,18.651878 32.6756237,23.7603799 C32.6756237,28.8701096 28.5508335,33.0111759 23.4632243,33.0111759 L23.4632243,33.0111759 Z M29.5234647,34.2965885 C30.0937969,33.9675621 30.567234,33.642219 31.0737872,33.2272529 L31.6588377,38.0079563 L29.5234647,34.2965885 Z M29.1260719,33.5636455 C28.8218946,33.7404358 28.431861,33.6348527 28.2564685,33.3303806 C28.0798494,33.0222253 28.1841037,32.6305858 28.4895074,32.4537955 C28.7949112,32.2770053 29.1837183,32.3825883 29.3603374,32.6882882 C29.5369564,32.9952157 29.4327021,33.3868552 29.1260719,33.5636455 L29.1260719,33.5636455 Z M23.4656774,42.8770547 C23.4656774,42.8770547 23.4607713,35.9269875 23.4656774,35.9269875 C24.0997887,35.9269875 24.7375797,35.874196 25.3459341,35.7796623 L23.4656774,42.8770547 Z M17.5955478,32.6821496 C17.7721668,32.3752221 18.160974,32.2720944 18.4663777,32.447657 C18.7717815,32.6244472 18.8772623,33.0173145 18.7006432,33.3230143 C18.5240242,33.6287141 18.1339905,33.7330695 17.8298133,33.557507 C17.5244096,33.3807167 17.4201553,32.9878494 17.5955478,32.6821496 L17.5955478,32.6821496 Z M15.2737435,38.009184 L17.4078901,34.2965885 C17.9769958,34.6280702 18.4958142,34.8772954 19.1053952,35.1105603 L15.2737435,38.009184 Z M9.29813315,31.9872657 L12.9727901,29.8436837 C13.3002712,30.4157967 13.6252993,30.8921482 14.0386369,31.4004202 L9.29813315,31.9872657 Z M9.29813315,15.5334942 L12.9727901,17.6783038 C12.6440825,18.2479614 12.3950987,18.7697382 12.1632862,19.3823655 L9.29813315,15.5334942 Z M13.4437742,23.7112715 C13.4437742,24.0660798 13.1579948,24.3521362 12.8059832,24.3521362 C12.4539717,24.3521362 12.1681923,24.0660798 12.1681923,23.7112715 C12.1681923,23.357691 12.4539717,23.0716345 12.8059832,23.0716345 C13.1579948,23.0716345 13.4437742,23.357691 13.4437742,23.7112715 L13.4437742,23.7112715 Z M17.4066636,13.2241714 C16.8375578,13.5531977 16.3628942,13.8785409 15.8575675,14.293507 L15.2737435,9.53367469 L17.4066636,13.2241714 Z M17.8371724,13.9620252 C18.1413497,13.7852349 18.5326099,13.8895903 18.7080024,14.1952901 C18.8846214,14.5034454 18.7791406,14.8938572 18.4737369,15.0706475 C18.1695596,15.2474377 17.779526,15.1430824 17.6029069,14.8373826 C17.4275144,14.530455 17.5329952,14.1375878 17.8371724,13.9620252 L17.8371724,13.9620252 Z M23.4656774,4.64247745 L23.4656774,11.5937723 C22.4145489,11.5937723 21.5854207,11.7386421 21.5854207,11.7386421 L23.4656774,4.64247745 Z M29.3554313,14.831244 C29.1800388,15.1381715 28.7900051,15.2425269 28.4846014,15.0657366 C28.1791976,14.8889464 28.0761699,14.4985345 28.2515624,14.191607 C28.4269549,13.8846795 28.8182151,13.7803241 29.1223923,13.9571144 C29.427796,14.1326769 29.5320503,14.5255442 29.3554313,14.831244 L29.3554313,14.831244 Z M31.6563847,9.53367469 L29.5234647,13.2229437 C28.9543589,12.8926897 28.436767,12.6422368 27.8271861,12.4089719 L31.6563847,9.53367469 Z M4.42884473,23.7603799 C4.42884473,23.7603799 11.3574619,23.7554691 11.3574619,23.7603799 C11.3574619,24.3975615 11.4065228,25.0371985 11.5021914,25.6485982 L4.42884473,23.7603799 Z M42.5037365,23.7603799 C42.5037365,23.7603799 35.5738928,23.7652908 35.5738928,23.7603799 C35.5738928,23.1231984 35.5236055,22.4823337 35.4291633,21.8721617 L42.5037365,23.7603799 Z M35.1666878,26.9057733 L46.9302509,23.7603799 L35.1728205,20.608848 L39.9636115,14.1928347 L32.0329267,15.1602703 L32.9932926,7.18506517 L26.6031181,12.0025998 L23.4656774,0.195711274 L20.3306897,12.0075106 L13.9380621,7.19365914 L14.8984281,15.1565872 L6.9603841,14.1928347 L11.7634404,20.6149865 L0.00110386891,23.7603799 L11.7622139,26.9106842 L6.9603841,33.3279252 L14.9008811,32.3592618 L13.9380621,40.334467 L20.3282366,35.5242986 L23.4656774,47.3238209 L26.5969855,35.5107938 L32.9932926,40.334467 L32.0341532,32.3555787 L39.9697441,33.3279252 L35.1666878,26.9057733 Z M12.4073639,23.7112715 C12.4073639,23.9322594 12.586436,24.111505 12.8059832,24.111505 C13.026757,24.111505 13.2046026,23.9322594 13.2046026,23.7112715 C13.2046026,23.4915114 13.026757,23.311038 12.8059832,23.311038 C12.586436,23.311038 12.4073639,23.4915114 12.4073639,23.7112715 L12.4073639,23.7112715 Z M28.60848,32.6625063 C28.4183692,32.7730002 28.3533636,33.0173145 28.462524,33.2088373 C28.5729109,33.4015878 28.8169886,33.4666564 29.0070993,33.3549348 C29.1984366,33.2444409 29.2634422,33.0001265 29.1530553,32.8086038 C29.0438949,32.617081 28.7998173,32.5520123 28.60848,32.6625063 L28.60848,32.6625063 Z M34.5178582,23.7505583 C34.5178582,23.5295704 34.3400127,23.349097 34.1180124,23.349097 C33.8996916,23.349097 33.7218461,23.5295704 33.7218461,23.7505583 C33.7218461,23.9715461 33.8996916,24.1507918 34.1180124,24.1507918 C34.3400127,24.1507918 34.5178582,23.9715461 34.5178582,23.7505583 L34.5178582,23.7505583 Z M18.3547643,14.8631645 C18.5448751,14.7526705 18.6111072,14.5083562 18.5019468,14.3168334 C18.3915599,14.1253107 18.1474823,14.0590143 17.9573715,14.1707359 C17.7660342,14.2812299 17.7010286,14.5255442 17.8114155,14.717067 C17.9205759,14.907362 18.1646536,14.9736584 18.3547643,14.8631645 L18.3547643,14.8631645 Z" id="Fill-7" fill="#FFFFFF" mask="url(#mask-2)"></path>
                </g>
                <path d="M31,24.6100671 C30.2979198,25.0131111 29.4522041,25.057194 28.7117385,24.7297208 C27.5911342,24.2687392 26.3392769,24.2662202 25.2149579,24.7246828 C24.671372,24.9476165 24.0869242,25.0584536 23.5,25.049637 C22.9130758,25.0584536 22.3298663,24.9476165 21.7838039,24.7246828 C20.6607231,24.2662202 19.4088658,24.2687392 18.2870233,24.7297208 C17.5490342,25.057194 16.7020802,25.0131111 16,24.6100671 L16.3999505,23.9211138 C16.8878158,24.1931685 17.4722635,24.2196183 17.982417,23.9916465 L17.982417,17.1927982 L20.4811788,17.1927982 L20.4811788,17.8464852 C20.5616642,17.7558003 20.6483408,17.673932 20.7399703,17.5971017 C21.842001,16.6751386 23.4690441,16.8388752 24.3717187,17.9636199 C24.8434869,17.3892822 25.5269936,17.0416567 26.261268,17.0051309 C27.7112432,16.9308196 28.9470035,18.0706784 29.0188212,19.5531246 L29.0188212,23.992906 C29.5277365,24.2196183 30.110946,24.1931685 30.6000495,23.9211138 L31,24.6100671 Z M22.2729074,24.0269129 L22.2729074,19.9624661 C22.2642397,19.4599207 21.8580981,19.0593957 21.3665181,19.0694718 C20.9405646,19.0770289 20.5802377,19.3906475 20.5059435,19.8163627 L20.5059435,23.5760074 C21.1114413,23.6490591 21.7045567,23.7989411 22.2729074,24.0269129 L22.2729074,24.0269129 Z M26.4952947,23.5508171 L26.4952947,19.9146047 C26.4494799,19.4158377 26.0173353,19.0518386 25.5282318,19.0984406 C25.0874195,19.141264 24.7444279,19.5115607 24.7258544,19.9624661 L24.7258544,24.0558816 C25.2966815,23.8216123 25.8897969,23.6528376 26.4952947,23.5508171 L26.4952947,23.5508171 Z M28.7365032,27.4414511 C28.7204061,26.6807056 28.3278851,25.9816762 27.6939079,25.5798917 C26.7813274,24.9123501 25.534423,24.9791043 24.6961367,25.7423688 C24.1909361,26.1945338 23.8875681,26.8381447 23.8578504,27.5233194 C23.7662209,28.2097537 23.8442298,28.9087832 24.0844477,29.5561726 C24.3580981,30.159479 24.8608222,30.6242391 25.4762259,30.8396158 C26.0755324,31.0751446 26.7454185,31.0323212 27.3112927,30.7237406 C28.1124319,30.3383298 28.6510649,29.5448369 28.7253591,28.6442855 L27.1837543,28.6442855 C27.0859336,28.9717588 26.9113422,29.2349969 26.6921743,29.3823598 C26.1993561,29.7148711 25.6198613,29.3836194 25.3994552,28.6442855 C25.179049,27.9036922 25.3994552,27.0371476 25.8910352,26.7033768 C26.3850916,26.3721251 26.9633482,26.7033768 27.1837543,27.4414511 L28.7365032,27.4414511 Z M19.9388311,29.2778203 C19.9450223,29.4617091 20.0564636,29.6254457 20.2236256,29.6947189 C20.5022288,29.8105941 20.8142645,29.8105941 21.0928678,29.6947189 C21.2587915,29.6254457 21.371471,29.4617091 21.3789004,29.2778203 C21.371471,29.1040076 21.2711738,28.9490876 21.1188707,28.8735168 C20.9950471,28.8118007 20.8650322,28.7651987 20.7313026,28.7324514 C20.5567112,28.692147 20.3821199,28.6531021 20.2075285,28.6165763 C20.115899,28.5989431 20.0255077,28.5838289 19.9326399,28.5699743 C19.4200099,28.5007011 18.9370976,28.2777674 18.547053,27.930142 C18.452947,27.8155263 18.3761763,27.6895751 18.316741,27.5535477 C17.9601288,26.7424217 18.316741,25.7889708 19.1129272,25.4249717 C20.0799901,24.9866613 21.1820208,24.9740662 22.1577514,25.3922244 C22.7421991,25.6025629 23.1371966,26.163046 23.1471025,26.7965808 L21.4742447,26.7965808 C21.4247152,26.5446783 21.2253591,26.3544919 20.9777117,26.320485 C20.7610203,26.266326 20.534423,26.2889972 20.3338286,26.3872392 C20.1047548,26.4880002 19.990837,26.7524978 20.0725607,26.9905457 C20.1963843,27.2109604 20.4130758,27.3608423 20.6607231,27.3961087 C21.1312531,27.4628628 21.5955919,27.5736999 22.0487865,27.7235819 C22.2419515,27.7626268 22.422734,27.8432356 22.5824666,27.9591108 C22.7347697,28.0787644 22.8635463,28.2261274 22.9626053,28.392383 C23.4096087,29.144312 23.1743437,30.1229532 22.4375929,30.5788967 C21.538633,31.0386187 20.4985141,31.1267846 19.5376424,30.8194636 C18.8107974,30.6809172 18.2845468,30.0322683 18.2870233,29.2778203 L19.9388311,29.2778203 Z" id="Fill-10" fill="#FFFFFF"></path>
            </g>
        </g>
    </g>
</svg>