<?xml version="1.0" encoding="UTF-8"?>
<svg width="118px" height="43px" viewBox="0 0 118 43" version="1.1" xmlns="http://www.w3.org/2000/svg" xmlns:xlink="http://www.w3.org/1999/xlink">
    <title>Page 1</title>
    <defs>
        <polygon id="path-1" points="2.67080745e-05 0.00359793894 42.9965547 0.00359793894 42.9965547 42.9087533 2.67080745e-05 42.9087533"></polygon>
    </defs>
    <g id="Symbols" stroke="none" stroke-width="1" fill="none" fill-rule="evenodd">
        <g id="tabletheader" transform="translate(-43.000000, -8.000000)">
            <g id="Page-1" transform="translate(43.000000, 8.000000)">
                <path d="M72.5652404,29 L72.5580944,29 L72.5509484,28.9989919 C71.9070137,28.9369931 71.2509043,28.9052376 70.6162329,28.8744902 C69.9852669,28.8437428 69.3331275,28.8124914 68.6894574,28.7509967 C68.0460521,28.8124914 67.3933833,28.8437428 66.7629466,28.8744902 C66.1277459,28.9052376 65.4716365,28.9369931 64.8277018,28.9989919 L64.7472431,28.9989919 C64.0834583,28.9989919 63.3791795,28.9755533 63.3791795,28.3646382 C63.3791795,27.7688448 63.7558006,27.5848646 64.3695633,27.3348531 C65.0783414,27.032924 65.1553595,26.5626403 65.1553595,24.8372589 L65.1553595,14.8468817 C65.1553595,14.5137011 65.1241288,14.2425194 65.0891928,14.1291069 C64.9687693,14.220593 64.7723864,14.6051872 64.5648875,15.0101957 L64.425408,15.2816295 L57.9982356,28.0493516 C57.6716365,28.6799248 57.3132775,29 56.932951,29 C56.4711072,29 56.2720776,28.6133895 56.1122188,28.3033955 L56.0942214,28.2686157 L49.7946184,15.0278376 C49.4762241,14.3103148 49.3272166,14.2336984 49.2779885,14.2336984 C49.2319365,14.2336984 49.1625937,14.2336984 49.1625937,14.8156303 L49.1625937,23.0576914 C49.1625937,24.7818128 49.4799294,26.4933327 51.78412,27.3328369 C52.2843405,27.5135408 52.7477724,27.7643083 52.7477724,28.3646382 C52.7477724,29 52.0368769,29 51.7333039,29 C51.1597706,29 50.580944,28.935985 50.0211734,28.8739862 C49.4696074,28.8129955 48.8989854,28.7504926 48.3418615,28.7504926 C47.7847375,28.7504926 47.2141156,28.8129955 46.6625496,28.8739862 C46.102779,28.935985 45.5239524,29 44.9504191,29 C44.6434054,29 44.1296868,29 44.1296868,28.3646382 C44.1296868,27.8220226 44.5182179,27.6244329 44.9673577,27.3958438 L45.0764005,27.3398937 C46.6281429,26.531893 47.1008381,25.7430463 47.1008381,23.9627228 L47.1008381,12.1927783 C47.1008381,10.9767447 46.7072783,9.37132841 45.5983238,8.84988315 C45.4093516,8.76116941 45.2399647,8.68556111 45.0888399,8.61852174 C44.3639171,8.29491821 44,8.13236035 44,7.63536177 C44,7.18448426 44.1630348,7 44.5629466,7 C45.0523158,7 45.5469784,7.03225954 46.0257609,7.06300692 C46.4995148,7.09350227 46.989678,7.1247537 47.4697839,7.1247537 C47.9496251,7.1247537 48.4397883,7.09350227 48.9135421,7.06300692 C49.3923247,7.03225954 49.8869872,7 50.3763564,7 C51.0202911,7 51.3331275,7.08442927 51.6028231,7.60663062 L57.9016321,20.2836228 C58.0776356,20.631673 58.2226731,20.9255373 58.3420379,21.1677359 C58.5415968,21.5714842 58.6937803,21.879462 58.7707984,21.9941346 C58.8634318,21.9029006 59.0391707,21.5772809 59.1828849,21.3093754 C59.2580503,21.1700041 59.3382444,21.0208037 59.4242611,20.8703432 L66.4953683,7.79212299 C66.8439347,7.14794025 67.0064402,7 67.3655933,7 C67.8544332,7 68.3496251,7.03225954 68.8286723,7.06300692 C69.3024261,7.09350227 69.79206,7.1247537 70.2719012,7.1247537 C70.7517424,7.1247537 71.2421703,7.09350227 71.7159241,7.06300692 C72.1949713,7.03225954 72.6901632,7 73.1790031,7 C73.2922805,7 73.3891487,7.03906429 73.4592854,7.11215232 C73.5635642,7.22052422 73.6032642,7.39543143 73.5791795,7.64720708 C73.5802382,8.20116391 73.0247022,8.39068872 72.1057786,8.70395913 L71.9348037,8.76217752 C70.8634318,9.10720341 70.3502426,9.35242634 70.3502426,11.1632452 L70.3502426,22.2451542 C70.3502426,24.802479 70.4751654,26.4162123 72.9400088,27.3328369 C73.5963829,27.5750355 74,27.7547312 74,28.3646382 C74,29 73.2377592,29 72.5652404,29" id="Fill-1" fill="#FEFEFE"></path>
                <path d="M86.4534584,31 C84.9892317,31 83.6338773,30.6585393 82.3239744,30.3283889 C81.7436744,30.1818947 81.1435555,30.0305533 80.5389443,29.9104496 C80.5003633,29.9021016 80.4607254,29.8951 80.4187091,29.8872906 C80.0857501,29.8277773 79.529233,29.7284091 79.3717381,29.1674764 L78.2341283,24.5884564 C78.2132523,24.4931275 78.184713,24.3897198 78.1548523,24.2803878 C78.0819185,24.0143285 78,23.7121843 78,23.4727848 C78,23.2958608 78.0673846,22.7195786 78.9346634,22.7195786 C79.6267424,22.7195786 79.8854463,23.4170416 80.0743873,23.926809 C80.1177248,24.0439505 80.158684,24.1551676 80.2028143,24.2507658 C81.2624694,26.5470081 83.4872168,29.001324 86.5509678,29.001324 C88.8243377,29.001324 90.4119707,27.5393445 90.4119707,25.4456089 C90.4119707,23.29236 88.2374315,22.507916 85.7201559,21.5990597 C82.4534584,20.4203741 78.3884521,18.9530088 78.3884521,13.7050705 C78.3884521,10.0079777 81.4392548,7 85.1897998,7 C86.9328136,7 88.2646495,7.50653591 89.2365726,7.87654141 C89.8316707,8.10301493 90.3017771,8.28209329 90.6667107,8.28209329 C90.8006871,8.28209329 91.0818524,8.15687309 91.3080531,8.05642763 C91.5913325,7.93066885 91.8355024,7.82160609 92.0273502,7.82160609 C92.7128229,7.82160609 92.8008192,8.29448066 92.8008192,8.70622623 C92.7548391,10.0400233 93.0045584,11.9269437 93.1538614,13.0541948 C93.2220387,13.5688094 93.2545419,13.8214041 93.2545419,13.9353141 C93.2545419,14.5420262 92.9086345,14.9182254 92.3518531,14.9182254 C91.6161723,14.9182254 91.4240602,14.304781 91.1809473,13.5289544 L91.1373456,13.3900003 C90.4117064,11.0504023 87.737993,8.99867599 85.4167933,8.99867599 C83.7070754,8.99867599 81.97701,9.94846448 81.97701,11.764292 C81.97701,14.037106 84.1811455,14.8008146 86.7340953,15.6848962 C90.1397899,16.8641204 94,18.2014183 94,23.4727848 C94,27.0928604 91.1148841,31 86.4534584,31" id="Fill-3" fill="#FEFEFE"></path>
                <path d="M107.453072,31 C101.822822,31 96,26.7941836 96,19.756126 C96,15.5214972 97.3158677,12.1046585 99.8063471,9.87424827 C101.87549,8.02055471 104.740311,7 107.873059,7 C110.301418,7 112.333288,7.7905933 113.677785,8.31352661 C114.270088,8.54402657 114.781904,8.74302127 115.022012,8.74302127 C115.252397,8.74302127 115.317758,8.64069653 115.457394,8.38919307 C115.612964,8.10806929 115.826063,7.72354367 116.445915,7.72354367 C116.8,7.72354367 117.053072,7.93761781 117.121404,8.29656225 L117.609993,12.7896957 C117.637542,13.0538551 117.681837,13.3279777 117.725321,13.5937528 C117.782849,13.9481196 117.837407,14.2828292 117.837407,14.5276008 C117.837407,15.0483799 117.581634,15.5758909 117.092235,15.5758909 C116.597704,15.5758909 116.255503,14.923436 116.051047,14.5337941 C116.027549,14.4899022 116.008373,14.4524728 115.992167,14.4241989 C114.038352,10.9255004 111.419041,8.99910241 108.61688,8.99910241 C104.003781,8.99910241 101.760972,12.0335697 101.760972,18.2767256 C101.760972,23.5553361 105.025253,27.8500135 109.037677,27.8500135 C111.41445,27.8500135 113.881702,26.7276726 115.807968,24.7705771 C115.8763,24.7005655 115.947873,24.6222063 116.022687,24.5406157 C116.389467,24.139395 116.845645,23.6404273 117.3842,23.6404273 C117.56921,23.6404273 118,23.7107082 118,24.3604703 C118,25.4817341 114.458609,31 107.453072,31" id="Fill-5" fill="#FEFEFE"></path>
                <path d="M50.8914685,37.4201969 C50.9096503,37.5796731 50.9546853,37.7563196 50.9546853,37.8572605 C50.9546853,37.9496163 50.9096503,38.0588822 50.8193007,38.0588822 C50.7107692,38.0588822 50.6114685,37.8572605 50.5753846,37.7982049 C50.0058741,36.8655422 49.238042,36.3780081 48.4517483,36.3780081 C47.3043357,36.3780081 46.4640559,36.9831332 46.4640559,38.8151585 C46.4640559,40.1094394 47.3493706,41.3280146 48.5692308,41.3280146 C49.3283916,41.3280146 50.033007,40.9666565 50.5121678,40.5212678 C50.6204196,40.4203269 50.7560839,40.2522655 50.9004196,40.2522655 C50.9728671,40.2522655 51,40.2941508 51,40.3698565 C51,40.6222087 50.0240559,42 48.1264336,42 C46.6083916,42 45,40.9833066 45,39.1931665 C45,36.848632 46.6897902,36 48.2439161,36 C49.238042,36 49.9969231,36.4453887 50.2408392,36.4453887 C50.4668531,36.4453887 50.3854545,36.1847114 50.6386014,36.1847114 C50.7197203,36.1847114 50.7468531,36.2351819 50.7560839,36.2770672 L50.8914685,37.4201969 Z" id="Fill-7" fill="#FEFEFE"></path>
                <path d="M58.1161149,38.474136 C58.1161149,38.5776809 58.1161149,38.7756972 58.659943,38.7756972 C59.4247753,38.7756972 59.73918,38.4135569 59.73918,37.5515723 C59.73918,36.9311035 59.3739969,36.3274474 58.6428415,36.3274474 C58.192677,36.3274474 58.1161149,36.4654183 58.1161149,36.7757861 L58.1161149,38.474136 Z M56.8242929,37.0602678 C56.8242929,36.5516168 56.5354089,36.3965663 56.1783819,36.3447938 C56.0678799,36.3274474 56,36.2759418 56,36.1379709 C56,36.0517725 56.0336768,36 56.2378426,36 C56.4417452,36 56.6711686,36.068852 57.2747205,36.068852 C57.7335672,36.068852 58.3626398,36 58.7365052,36 C59.8752028,36 61.0565227,36.2153627 61.0565227,37.6377708 C61.0565227,38.2240804 60.7679018,38.5256416 60.4190309,38.7327314 C60.2493313,38.8274696 60.0025433,38.8792421 60.0025433,38.9654406 C60.0025433,39.0946048 60.9547029,40.8188409 61.3711905,41.2930659 C61.4561719,41.3878041 61.5243148,41.4395766 61.6006139,41.4395766 C61.6940145,41.4395766 61.7876781,41.4136903 61.8642403,41.4136903 C61.9660601,41.4136903 62,41.4740026 62,41.5690077 C62,41.9394209 60.9973251,41.9914602 60.7165972,41.9914602 C60.4703355,41.9914602 60.1727691,41.8187964 59.9857049,41.4740026 L58.9914492,39.629142 C58.8470072,39.3620068 58.7109844,39.1466441 58.3965797,39.1466441 C58.1755755,39.1466441 58.1161149,39.1896099 58.1161149,39.3016946 L58.1161149,40.7670685 C58.1161149,41.4740026 58.4049989,41.6290531 58.7620259,41.6552062 C58.872528,41.6637459 58.9404078,41.7240582 58.9404078,41.8617622 C58.9404078,41.9738469 58.838588,42 58.447358,42 C58.1074326,42 57.7675071,41.9308811 57.4275817,41.9308811 C57.0876562,41.9308811 56.7477308,42 56.4078053,42 C56.288884,42 56.1612804,42 56.1612804,41.8617622 C56.1612804,41.7240582 56.3057224,41.6810924 56.3907038,41.6552062 C56.72221,41.5516613 56.8242929,41.2242139 56.8242929,40.9394654 L56.8242929,37.0602678 Z" id="Fill-9" fill="#FEFEFE"></path>
                <path d="M69.8488953,37.0469834 C69.8488953,36.5192764 69.5512131,36.3403882 69.1839183,36.3403882 C69.0701544,36.3403882 69,36.2726794 69,36.1620269 C69,36.0426802 69.0788221,36 69.5076036,36 C69.857563,36 70.2075223,36.0682357 70.5574817,36.0682357 C70.9074411,36.0682357 71.2576713,36 71.6076307,36 C71.817823,36 71.8614325,36.0513744 71.8614325,36.1364714 C71.8614325,36.2384298 71.7390009,36.2726794 71.598963,36.3403882 C71.3102194,36.4768596 71.1788492,36.7405814 71.1788492,37.0469834 L71.1788492,39.6936858 C71.1788492,40.6892948 71.8614325,41.4043207 72.9375846,41.4043207 C74.504005,41.4043207 74.8886352,40.1874067 74.8886352,39.2426451 L74.8886352,37.0725389 C74.8886352,36.6383595 74.6613783,36.3662071 74.1800488,36.3403882 C74.0310722,36.3319575 73.8999729,36.2726794 73.8999729,36.1364714 C73.8999729,36.0342496 74.0050691,36 74.2236582,36 C74.4861278,36 74.7488682,36.0342496 75.0113377,36.0342496 C75.2735364,36.0342496 75.5362767,36 75.7987463,36 C75.973726,36 76,36.0342496 76,36.1364714 C76,36.2726794 75.8423558,36.28111 75.6936501,36.3403882 C75.4401192,36.44261 75.3699648,36.5959427 75.3699648,37.3365241 L75.3699648,39.1491174 C75.3699648,41.0381136 74.3636962,42 72.3863716,42 C70.7850095,42 69.8488953,41.3445157 69.8488953,39.7276719 L69.8488953,37.0469834 Z" id="Fill-11" fill="#FEFEFE"></path>
                <path d="M84.1526452,40.9395125 C84.1526452,41.474026 84.6279775,41.637609 84.818271,41.6552215 C84.9306807,41.6637609 85,41.7238036 85,41.8617684 C85,42 84.7492194,42 84.4984388,42 C84.230529,42 83.8847355,41.9308842 83.5389419,41.9308842 C83.1928807,41.9308842 82.8470872,42 82.5012936,42 C82.337229,42 82.2074226,42 82.2074226,41.8617684 C82.2074226,41.7238036 82.3543581,41.6808397 82.4408065,41.6552215 C82.7780355,41.5516812 82.8385226,41.2239815 82.8385226,40.9395125 L82.8385226,37.0604875 C82.8385226,36.525974 82.5446516,36.3709304 82.1814613,36.3447785 C82.0690517,36.3362391 82,36.2759295 82,36.1382316 C82,36 82.2507806,36 82.5012936,36 C82.8470872,36 83.1928807,36.0691158 83.5389419,36.0691158 C83.8847355,36.0691158 84.230529,36 84.5763226,36 C84.6972968,36 84.8271032,36 84.8271032,36.1382316 C84.8271032,36.2759295 84.5934517,36.3191603 84.5070033,36.3447785 C84.1697743,36.4483188 84.1526452,36.7757516 84.1526452,37.0604875 L84.1526452,40.9395125 Z" id="Fill-13" fill="#FEFEFE"></path>
                <path d="M91.0585454,40.4120019 C91.0419662,40.3362962 91,40.2187053 91,40.1429996 C91,40.0842041 91.0334175,40.0168235 91.1756363,40.0168235 C91.343242,40.0168235 91.3849492,40.2439405 91.4434946,40.3698565 C91.7533191,41.033777 92.3556117,41.6219919 93.1423483,41.6219919 C93.7280617,41.6219919 94.2049738,41.2606339 94.2049738,40.6471838 C94.2049738,39.2774574 91.1005116,39.9411178 91.1005116,37.6470537 C91.1005116,36.7815115 91.8033158,36 92.7908167,36 C93.5021695,36 93.9288259,36.3277978 94.2049738,36.3277978 C94.2971958,36.3277978 94.4811217,36.2102068 94.5565054,36.2102068 C94.6653067,36.2102068 94.6904346,36.2604171 94.6904346,36.369683 C94.6735963,36.848632 94.8075254,37.6134935 94.8075254,37.7058492 C94.8075254,37.8151151 94.7572696,37.8908208 94.6401787,37.8908208 C94.4894113,37.8908208 94.4559938,37.7563196 94.3888997,37.5461128 C94.1966842,36.9326627 93.4853313,36.3780081 92.8493621,36.3780081 C92.3387734,36.3780081 91.8952788,36.6722456 91.8952788,37.1511946 C91.8952788,38.5799766 95,37.8234401 95,40.1429996 C95,40.9583315 94.3640308,42 93.1172204,42 C92.5817628,42 92.1128813,41.8238737 91.6025516,41.7229328 C91.5188783,41.7062828 91.3849492,41.6976976 91.3515316,41.5798465 L91.0585454,40.4120019 Z" id="Fill-15" fill="#FEFEFE"></path>
                <path d="M102.838755,37.5000667 C102.838755,37.0776142 102.796516,36.4309923 102.440497,36.3880265 C102.177616,36.3533336 102,36.2759418 102,36.1379709 C102,36 102.144034,36 102.313517,36 C102.965999,36.0861985 103.618743,36.0603122 104.271225,36.0691189 C104.923707,36.0691189 105.576451,36 106.228933,36 C106.423602,36 106.593347,36 106.593347,36.1723969 C106.593347,36.3621403 106.559503,36.5516168 106.559503,36.7413601 C106.559503,36.9311035 106.593347,37.12058 106.593347,37.3103234 C106.593347,37.4053285 106.567898,37.4741805 106.440655,37.4741805 C106.305016,37.4741805 106.279568,37.3188631 106.271172,37.2414713 C106.211617,36.6983943 105.966051,36.474225 104.974604,36.474225 L104.423654,36.474225 C104.186483,36.474225 104.126928,36.5516168 104.126928,36.8878708 L104.126928,38.3964773 C104.126928,38.5344482 104.271225,38.5776809 104.61019,38.5776809 C105.101585,38.5776809 105.474656,38.4309033 105.610033,38.0604901 C105.703432,37.8189743 105.737276,37.7930881 105.822017,37.7930881 C105.948998,37.7930881 105.948998,37.9139795 105.948998,38.0346039 C105.948998,38.2931993 105.915416,38.5515278 105.915416,38.8103901 C105.915416,39.0689855 105.948998,39.3275808 105.948998,39.5861762 C105.948998,39.7070676 105.948998,39.827692 105.788173,39.827692 C105.66093,39.827692 105.66093,39.5690967 105.559135,39.3964329 C105.347413,39.0430992 105.101585,38.9913268 104.61019,38.9913268 C104.203274,38.9913268 104.126928,39.1034115 104.126928,39.3187742 L104.126928,40.7932215 C104.126928,41.4307699 104.237118,41.525775 104.686273,41.525775 C105.576451,41.525775 106.067846,41.2501001 106.355914,40.9653516 C106.643982,40.6811369 106.728723,40.3878486 106.864361,40.3878486 C106.965894,40.3878486 107,40.4655073 107,40.5519726 C107,40.7241027 106.932312,41.0603567 106.873019,41.2327536 C106.762829,41.5775475 106.381362,42 105.982842,42 C105.415101,42 104.847361,41.931148 104.27962,41.931148 C103.711617,41.931148 103.143877,42 102.576136,42 C102.313517,42 102.186273,42 102.186273,41.8620291 C102.186273,41.7240582 102.355756,41.6640128 102.508186,41.5863541 C102.78812,41.4483832 102.838755,41.2415603 102.838755,40.7499889 L102.838755,37.5000667 Z" id="Fill-17" fill="#FEFEFE"></path>
                <path d="M114.058545,40.4120019 C114.041966,40.3362962 114,40.2187053 114,40.1429996 C114,40.0842041 114.033418,40.0168235 114.175636,40.0168235 C114.343242,40.0168235 114.384949,40.2439405 114.443495,40.3698565 C114.753319,41.033777 115.355612,41.6219919 116.142348,41.6219919 C116.728062,41.6219919 117.204974,41.2606339 117.204974,40.6471838 C117.204974,39.2774574 114.100512,39.9411178 114.100512,37.6470537 C114.100512,36.7815115 114.803316,36 115.790817,36 C116.50217,36 116.928826,36.3277978 117.204974,36.3277978 C117.297196,36.3277978 117.481122,36.2102068 117.556505,36.2102068 C117.665307,36.2102068 117.690435,36.2604171 117.690435,36.369683 C117.673596,36.848632 117.807525,37.6134935 117.807525,37.7058492 C117.807525,37.8151151 117.75727,37.8908208 117.640179,37.8908208 C117.489411,37.8908208 117.455994,37.7563196 117.3889,37.5461128 C117.196684,36.9326627 116.485331,36.3780081 115.849362,36.3780081 C115.338773,36.3780081 114.895279,36.6722456 114.895279,37.1511946 C114.895279,38.5799766 118,37.8234401 118,40.1429996 C118,40.9583315 117.364031,42 116.11722,42 C115.581763,42 115.112881,41.8238737 114.602552,41.7229328 C114.518878,41.7062828 114.384949,41.6976976 114.351532,41.5798465 L114.058545,40.4120019 Z" id="Fill-19" fill="#FEFEFE"></path>
                <path d="M19,11 L21,4 L21,10.8582037 C19.8820704,10.8582037 19,11 19,11" id="Fill-21" fill="#FEFEFE"></path>
                <path d="M11.1189399,19 L8,15 L12,17.2281757 C11.6413552,17.8215237 11.3715782,18.362813 11.1189399,19" id="Fill-23" fill="#FEFEFE"></path>
                <path d="M11,24 L4,22.0020654 C4,22.0020654 10.857502,21.9974183 10.857502,22.0020654 C10.857502,22.6762018 10.9071167,23.3543657 11,24" id="Fill-25" fill="#FEFEFE"></path>
                <path d="M15.5468216,14 L15,9 L17,12.8755996 C16.4663021,13.2218054 16.0214627,13.5640143 15.5468216,14" id="Fill-27" fill="#FEFEFE"></path>
                <path d="M19,32.8744186 L15,36 L17.2281062,32 C17.8212737,32.3553804 18.3620939,32.6243595 19,32.8744186" id="Fill-29" fill="#FEFEFE"></path>
                <path d="M23,32 L21.0026142,39 C21.0026142,39 20.9967323,32.1454965 21.0026142,32.1454965 C21.6762521,32.1454965 22.354224,32.0935335 23,32" id="Fill-31" fill="#FEFEFE"></path>
                <path d="M13,27.4516658 L8,28 L11.8764529,26 C12.2223725,26.532769 12.5639875,26.9776079 13,27.4516658" id="Fill-33" fill="#FEFEFE"></path>
                <path d="M30.8810601,26 L34,30 L30,27.7715547 C30.3586448,27.1782969 30.6287392,26.6380032 30.8810601,26" id="Fill-35" fill="#FEFEFE"></path>
                <path d="M32,21 L39,22.9980728 C39,22.9980728 32.1416677,23.002409 32.1416677,22.9980728 C32.1416677,22.3234793 32.0934834,21.6460983 32,21" id="Fill-37" fill="#FEFEFE"></path>
                <path d="M28.4505735,31 L29,36 L27,32.1179136 C27.532769,31.7729276 27.9776079,31.4322273 28.4505735,31" id="Fill-39" fill="#FEFEFE"></path>
                <path d="M26,12.1183751 L30,9 L27.7697579,13 C27.1770976,12.6413837 26.6368205,12.3700413 26,12.1183751" id="Fill-41" fill="#FEFEFE"></path>
                <path d="M29,15.5464735 L34,15 L30.1242312,17 C29.7656827,16.4548934 29.4360394,16.0207764 29,15.5464735" id="Fill-43" fill="#FEFEFE"></path>
                <g id="Group-47">
                    <mask id="mask-2" fill="white">
                        <use xlink:href="#path-1"></use>
                    </mask>
                    <g id="Clip-46"></g>
                    <path d="M24.3700764,32.176368 L21.4984242,42.9088866 L18.6112814,32.1737028 L12.7694242,36.5458649 L13.6355671,29.2964177 L6.3765795,30.1655199 L10.7564366,24.3269978 L2.67080745e-05,21.4563755 L10.7548342,18.5865528 L6.37604534,12.744566 L13.6355671,13.6158003 L12.7688901,6.37328244 L18.6128839,10.7411803 L21.4984242,0.00359793894 L24.368741,10.7363831 L30.2276913,6.36661959 L29.3612814,13.6158003 L36.6133248,12.7456321 L32.237741,18.5830881 L42.9965547,21.4563755 L32.2388093,24.3296629 L36.6200019,30.1655199 L29.3556727,29.3033471 L30.2276913,36.5458649 L24.3700764,32.176368 Z M21.4984242,40.8855123 L19.2068714,32.2939006 C18.7955671,32.2091492 18.4272627,32.1102725 18.0490764,31.9836783 L13.3853124,35.4787429 L14.0863994,29.6975213 C13.7883373,29.4296747 13.509772,29.1506346 13.2421571,28.8524054 L7.44623789,29.5509386 L10.9452627,24.89334 C10.8232068,24.5175553 10.7190453,24.142037 10.6370516,23.7486624 L2.02823789,21.4563755 L10.6343807,19.1686194 C10.7222503,18.7469942 10.8208031,18.4007926 10.9452627,18.0234087 L7.44623789,13.3602133 L13.2389522,14.0566144 C13.5079025,13.7586518 13.7829957,13.4846754 14.0823932,13.2178949 L13.3861137,7.43400814 L18.0541509,10.9258745 C18.4293994,10.8038111 18.8067845,10.7030688 19.2009957,10.6209825 L21.4984242,2.02723871 L23.780095,10.6137866 C24.1913994,10.6985381 24.5701199,10.8030116 24.947772,10.9285397 L29.6118031,7.43480768 L28.9160578,13.2168288 C29.2151882,13.4846754 29.4902814,13.762383 29.7592317,14.0611452 L35.5500764,13.3615459 L32.0499832,18.0186115 C32.1725733,18.3946627 32.2703248,18.7443291 32.3592627,19.1707515 L40.9683435,21.4563755 L32.3624677,23.7419995 C32.2671199,24.1566953 32.1763124,24.511692 32.0489149,24.8978707 L35.5500764,29.5514716 L29.7578963,28.8518724 C29.4897472,29.149835 29.2095795,29.4278091 28.9107161,29.6953892 L29.6118031,35.4787429 L24.9386913,31.9868765 C24.5623745,32.1092064 24.1889957,32.2091492 23.7961199,32.292035 L21.4984242,40.8855123 Z" id="Fill-45" fill="#FEFEFE" mask="url(#mask-2)"></path>
                </g>
                <path d="M31,21.5 C31,21.7765179 30.7751371,22 30.497989,22 C30.2244973,22 30,21.7765179 30,21.5 C30,21.2234821 30.2244973,21 30.497989,21 C30.7751371,21 31,21.2234821 31,21.5" id="Fill-48" fill="#FEFEFE"></path>
                <path d="M26.749731,12.0673105 C26.9882779,12.2045052 27.0713302,12.5118213 26.9330316,12.7499913 C26.794733,12.9896247 26.4881344,13.0704781 26.2495876,12.9332834 C26.0106749,12.7946253 25.9294519,12.4887726 26.0666529,12.2498709 C26.2049516,12.0106034 26.5111842,11.9290183 26.749731,12.0673105" id="Fill-50" fill="#FEFEFE"></path>
                <path d="M16.2496587,12.0675903 C16.4887468,11.9288831 16.7951012,12.0104971 16.9332897,12.2498493 C17.0707471,12.4892016 16.9892232,12.7951626 16.7490384,12.9327718 C16.5103159,13.0711131 16.2057893,12.9891331 16.0665041,12.7494148 C15.9297779,12.5111605 16.0102051,12.2062975 16.2496587,12.0675903" id="Fill-52" fill="#FEFEFE"></path>
                <path d="M11,21.5 C11,21.2242136 11.223766,21 11.5001828,21 C11.776234,21 12,21.2242136 12,21.5 C12,21.7765179 11.776234,22 11.5001828,22 C11.223766,22 11,21.7765179 11,21.5" id="Fill-54" fill="#FEFEFE"></path>
                <path d="M16.2494467,29.9322657 C16.0110082,29.7952826 15.9290906,29.4884404 16.0669608,29.2502725 C16.2051966,29.0110087 16.5109246,28.9288188 16.750826,29.0672631 C16.9892646,29.2049767 17.0708165,29.510723 16.9329463,29.748891 C16.7943447,29.9892507 16.4897138,30.0714406 16.2494467,29.9322657" id="Fill-56" fill="#FEFEFE"></path>
                <path d="M26.5987058,30.3333793 C26.8736425,30.1735123 26.9687116,29.8221734 26.8093853,29.5461592 C26.650849,29.2698815 26.2984876,29.1755942 26.0238143,29.3351978 C25.7467708,29.493748 25.6524918,29.8461403 25.8120815,30.1218913 C25.9703544,30.3981689 26.3227158,30.4924563 26.5987058,30.3333793 M16.4002408,30.3312723 C16.6759675,30.490876 17.0283289,30.3955352 17.1873918,30.1197843 C17.3461915,29.8461403 17.2516491,29.4926946 16.976449,29.3341444 C16.700459,29.174804 16.3478343,29.2693547 16.1890346,29.5445789 C16.030235,29.8205932 16.1250408,30.1724588 16.4002408,30.3312723 M11.301535,21.4985515 C11.301535,21.8172321 11.5596173,22.0745469 11.8782699,22.0745469 C12.1966592,22.0745469 12.4542148,21.8172321 12.4542148,21.4985515 C12.4542148,21.1801342 12.1966592,20.9228193 11.8782699,20.9228193 C11.5596173,20.9228193 11.301535,21.1801342 11.301535,21.4985515 M16.4018209,12.6668841 C16.1268842,12.8256976 16.0323418,13.1786167 16.1911414,13.4538408 C16.3504678,13.7298551 16.7033558,13.8241425 16.9785558,13.6642754 C17.2545459,13.5054618 17.3477716,13.1538597 17.1889719,12.877582 C17.029909,12.6018311 16.6775476,12.5078071 16.4018209,12.6668841 M26.601076,12.6682009 C26.3248226,12.5093873 25.9729879,12.6028846 25.8141883,12.8786355 C25.6545986,13.1543864 25.7488776,13.5073054 26.0248677,13.6653289 C26.299541,13.825196 26.6519024,13.7303819 26.8117554,13.4551577 C26.969765,13.1791434 26.8757493,12.8267511 26.601076,12.6682009 M31.6987284,21.5009218 C31.6987284,21.1825045 31.4406461,20.9254531 31.1212034,20.9254531 C30.8046575,20.9254531 30.5463119,21.1825045 30.5463119,21.5009218 C30.5463119,21.8198658 30.8046575,22.0763905 31.1212034,22.0763905 C31.4406461,22.0763905 31.6987284,21.8198658 31.6987284,21.5009218 M11,21.5003951 C11,15.7017245 15.7002583,11 21.49921,11 C27.2978982,11 32,15.7017245 32,21.5003951 C32,27.2995924 27.2978982,32 21.49921,32 C15.7002583,32 11,27.2995924 11,21.5003951 M12.7473226,21.5009218 C12.7473226,16.6672478 16.6654335,12.747476 21.49921,12.747476 C26.3340398,12.747476 30.2529407,16.6672478 30.2529407,21.5009218 C30.2529407,26.3345958 26.3340398,30.2541042 21.49921,30.2541042 C16.6654335,30.2541042 12.7473226,26.3345958 12.7473226,21.5009218" id="Fill-58" fill="#FEFEFE"></path>
                <path d="M26.7495597,29.9324388 C26.511595,30.0710863 26.2052749,29.9895074 26.0681985,29.7502581 C25.9281978,29.5110088 26.0108092,29.2048136 26.2513326,29.0668977 C26.4896628,28.9297135 26.7956174,29.0098291 26.9326938,29.2494442 C27.0708668,29.4894252 26.9897176,29.7952546 26.7495597,29.9324388" id="Fill-60" fill="#FEFEFE"></path>
                <path d="M28,21.5233841 C27.3923817,21.8689059 26.6584394,21.9063906 26.0179769,21.6264032 C25.0462929,21.2306468 23.96117,21.2280968 22.9874648,21.6220682 C22.5155184,21.8133164 22.0089593,21.9074106 21.499621,21.8995056 C20.9905354,21.9074106 20.4854922,21.8133164 20.0127879,21.6220682 C19.039588,21.2280968 17.9539598,21.2306468 16.9825284,21.6264032 C16.3418132,21.9063906 15.607871,21.8689059 15,21.5233841 L15.3461277,20.9322996 C15.7690603,21.1663874 16.2763774,21.1898472 16.7177534,20.993499 L16.7177534,15.1660377 L18.8834516,15.1660377 L18.8834516,15.7249926 C18.953435,15.6490033 19.0287241,15.5778589 19.1083082,15.5120696 C20.0630648,14.7215768 21.4725877,14.8615706 22.2570596,15.8264817 C22.6655913,15.3348462 23.2572928,15.0362439 23.8927024,15.0041142 C25.1503838,14.9408748 26.2208532,15.9190458 26.2824993,17.1889341 L26.2824993,20.993499 C26.7246332,21.1898472 27.2304344,21.1663874 27.6536197,20.9322996 L28,21.5233841 Z M20.4364785,21.0230787 L20.4364785,17.5395559 C20.428899,17.1088648 20.0769605,16.766658 19.6507434,16.7740529 C19.2818774,16.7806829 18.9696045,17.0502154 18.9041687,17.415627 L18.9041687,20.6375223 C19.4296764,20.6997417 19.9440676,20.8287705 20.4364785,21.0230787 L20.4364785,21.0230787 Z M24.096084,20.6145725 L24.096084,17.4982462 C24.0556603,17.0724002 23.6814887,16.7592631 23.2583034,16.8000627 C22.876805,16.8360173 22.5791857,17.1522144 22.5630162,17.5395559 L22.5630162,21.0483235 C23.0574483,20.8486603 23.5710815,20.7028017 24.096084,20.6145725 L24.096084,20.6145725 Z M26.0402099,23.9499417 C26.0240404,23.2989327 25.6852395,22.6981583 25.1357302,22.3551864 C24.3436789,21.7819517 23.2646196,21.8395812 22.5377514,22.4941602 C22.098144,22.8815016 21.8358954,23.4328065 21.8101254,24.0205761 C21.7310465,24.6088557 21.7990088,25.2083551 22.0066855,25.76323 C22.2434166,26.2806202 22.6802449,26.6781616 23.2138373,26.8627799 C23.7322709,27.064993 24.3126032,27.0287833 24.8027403,26.7643508 C25.4980274,26.4336188 25.9646682,25.7532851 26.029346,24.9803872 L24.6930911,24.9803872 C24.6082013,25.2626696 24.4563599,25.4873225 24.2673793,25.6132914 C23.8396463,25.8986338 23.3381401,25.6153314 23.1468856,24.9803872 C22.9556311,24.3472281 23.1456224,23.6021249 23.5731027,23.3183126 C24.0003304,23.0339902 24.5018366,23.3167826 24.6930911,23.9499417 L26.0402099,23.9499417 Z M18.4130211,25.5245522 C18.418832,25.6816308 18.5161014,25.8218795 18.6606161,25.8812939 C18.9018949,25.980743 19.1719755,25.980743 19.4132543,25.8812939 C19.5585269,25.8218795 19.6545331,25.6816308 19.6608493,25.5245522 C19.6550384,25.3756336 19.5686328,25.2427798 19.4362453,25.1775004 C19.3293752,25.1252259 19.2166942,25.0849363 19.0999708,25.0584165 C18.9488874,25.0227168 18.7978039,24.9893121 18.6459625,24.9579474 C18.567389,24.9423926 18.4885628,24.9288777 18.4084734,24.9189328 C17.9640657,24.8582434 17.5456807,24.6675051 17.2073851,24.3686479 C17.1265378,24.2704738 17.0588281,24.1626098 17.0077932,24.0465858 C16.6988048,23.3496773 17.0077932,22.5334298 17.6977748,22.2215677 C18.5363133,21.8451911 19.4905646,21.8357562 20.3374405,22.1942829 C20.8445049,22.3730363 21.1860849,22.8537068 21.1931591,23.3965968 L19.7447284,23.3965968 C19.701273,23.1818888 19.5287144,23.0189453 19.3132057,22.9901306 C19.1270042,22.942701 18.9291808,22.9631008 18.7553591,23.0475051 C18.5577884,23.1339493 18.4579924,23.3591122 18.5289865,23.5648953 C18.6366145,23.7525735 18.8250899,23.8800724 19.0385774,23.9114371 C19.4471091,23.9693215 19.8495773,24.0629057 20.2424449,24.1924445 C20.4079293,24.2253392 20.5663395,24.2944436 20.7058012,24.3931276 C20.8369255,24.4961467 20.9488485,24.6226255 21.0347488,24.7661892 C21.4215528,25.4100583 21.2181712,26.2487455 20.5797299,26.6396569 C19.799553,27.0341383 18.8988631,27.1083426 18.0656302,26.84442 C17.4357788,26.7268661 16.9797493,26.1712262 16.9825284,25.5245522 L18.4130211,25.5245522 Z" id="Fill-62" fill="#FEFEFE"></path>
            </g>
        </g>
    </g>
</svg>