<?xml version="1.0" encoding="UTF-8"?>
<svg width="21px" height="21px" viewBox="0 0 21 21" version="1.1" xmlns="http://www.w3.org/2000/svg" xmlns:xlink="http://www.w3.org/1999/xlink">
    <title>Phone</title>
    <g id="Symbols" stroke="none" stroke-width="1" fill="none" fill-rule="evenodd">
        <g id="mobilemenu" transform="translate(-204.000000, -17.000000)" fill="#FFFFFF">
            <path d="M210.676508,32.2256621 C209.314392,30.863802 208.474652,29.6775558 205.472433,32.0904736 C202.469951,34.5044415 204.776019,36.1127909 206.095347,37.4326507 C207.61785,38.9548994 213.293376,37.5127138 218.903277,31.9035722 C224.51239,26.2933807 225.955618,20.6180887 224.432064,19.0950524 C223.112474,17.7754551 221.504133,15.4701631 219.091227,18.4726603 C216.677796,21.4741075 217.863512,22.3141137 219.22589,23.6762363 C220.17693,24.6272809 218.190587,27.0336362 216.11237,29.1121266 C214.034153,31.1903545 211.627547,33.1769692 210.676508,32.2256621 Z" id="Phone" transform="translate(214.500000, 27.500000) scale(-1, 1) translate(-214.500000, -27.500000) "></path>
        </g>
    </g>
</svg>