<?xml version="1.0" encoding="UTF-8"?>
<svg width="24px" height="31px" viewBox="0 0 24 31" version="1.1" xmlns="http://www.w3.org/2000/svg" xmlns:xlink="http://www.w3.org/1999/xlink">
    <title>Pinterest</title>
    <g id="Symbols" stroke="none" stroke-width="1" fill="none" fill-rule="evenodd">
        <g id="Footer" transform="translate(-1592.000000, -338.000000)" fill="#FFFFFF">
            <g id="Group-14" transform="translate(1330.000000, 307.000000)">
                <g id="Social" transform="translate(0.000000, 29.000000)">
                    <path d="M271.865912,22.503146 C271.055476,26.7712032 270.066108,30.8628714 267.135333,33 C266.230804,26.5492444 268.464054,21.7049003 269.500931,16.5617177 C267.733211,13.5714737 269.71349,7.55254576 273.442669,9.03588785 C278.031028,10.8602281 269.468847,20.1539785 275.216559,21.3152323 C281.21786,22.5267059 283.667987,10.8521682 279.946521,7.05530842 C274.569937,1.57329766 264.295567,6.93068908 265.558885,14.7792272 C265.866154,16.698427 267.839028,17.2802939 266.347109,19.9286097 C262.906071,19.1619838 261.878758,16.4349284 262.011105,12.7986478 C262.223664,6.84760952 267.332775,2.68061176 272.456695,2.10432483 C278.9371,1.37520872 285.019229,4.49472208 285.858973,10.6202894 C286.804842,17.5341825 282.934368,25.0225026 276.004474,24.4837254 C274.126619,24.3370962 273.338087,23.4024512 271.865912,22.503146 L271.865912,22.503146 Z" id="Pinterest"></path>
                </g>
            </g>
        </g>
    </g>
</svg>