<?xml version="1.0" encoding="UTF-8"?>
<svg width="27px" height="27px" viewBox="0 0 27 27" version="1.1" xmlns="http://www.w3.org/2000/svg" xmlns:xlink="http://www.w3.org/1999/xlink">
    <title>6F</title>
    <g id="Symbols" stroke="none" stroke-width="1" fill="none" fill-rule="evenodd">
        <g id="Main/Header" transform="translate(-923.000000, -62.000000)" fill="#FFFFFF">
            <path d="M939.111613,81.5460561 C936.733343,81.5460561 934.576041,80.5955532 932.999136,79.0518793 C932.996984,79.0518793 932.996267,79.0447327 932.994114,79.0447327 C932.990527,79.0447327 932.985505,79.037586 932.981918,79.037586 C931.374882,77.4581789 930.375507,75.2641609 930.375507,72.8485971 C930.375507,68.0460561 934.294809,64.1439915 939.111613,64.1439915 C943.928417,64.1439915 947.84772,68.0460561 947.84772,72.8485971 C947.84772,77.6439915 943.928417,81.5460561 939.111613,81.5460561 Z M939.111613,62 C933.108185,62 928.223226,66.8668608 928.223226,72.8485971 C928.223226,75.4785601 929.170947,77.8941239 930.741394,79.7736898 L923.315309,87.1704606 C922.894897,87.5921122 922.894897,88.2638962 923.315309,88.6855479 C923.525515,88.8928004 923.801007,89 924.076499,89 C924.351991,89 924.626765,88.8928004 924.836971,88.6855479 L932.27597,81.2744839 C934.146302,82.7824246 936.523854,83.6900476 939.111613,83.6900476 C945.115758,83.6900476 950,78.8231869 950,72.8485971 C950,66.8668608 945.115758,62 939.111613,62 L939.111613,62 Z" id="6F" transform="translate(936.500000, 75.500000) scale(-1, 1) translate(-936.500000, -75.500000) "></path>
        </g>
    </g>
</svg>