<?xml version="1.0" encoding="UTF-8"?>
<svg width="20px" height="20px" viewBox="0 0 20 20" version="1.1" xmlns="http://www.w3.org/2000/svg" xmlns:xlink="http://www.w3.org/1999/xlink">
    <title>6F</title>
    <g id="Design-5-Navigation" stroke="none" stroke-width="1" fill="none" fill-rule="evenodd">
        <g id="Menu-Smartphone" transform="translate(-26.000000, -91.000000)" fill="#0E2E5A">
            <path d="M37.9345282,105.47856 C36.1728467,105.47856 34.5748449,104.774484 33.4067677,103.631022 C33.4051734,103.631022 33.404642,103.625728 33.4030477,103.625728 C33.4003906,103.625728 33.3966706,103.620434 33.3940135,103.620434 C32.2036164,102.450503 31.4633382,100.825304 31.4633382,99.0359979 C31.4633382,95.4785601 34.3665254,92.5881419 37.9345282,92.5881419 C41.5025309,92.5881419 44.4057182,95.4785601 44.4057182,99.0359979 C44.4057182,102.588142 41.5025309,105.47856 37.9345282,105.47856 Z M37.9345282,91 C33.4875447,91 29.8690563,94.6050821 29.8690563,99.0359979 C29.8690563,100.984119 30.5710718,102.773425 31.7343661,104.165696 L26.2335623,109.644786 C25.9221459,109.95712 25.9221459,110.454738 26.2335623,110.767073 C26.3892705,110.920593 26.5933386,111 26.7974066,111 C27.0014747,111 27.2050114,110.920593 27.3607196,110.767073 L32.871089,105.277395 C34.2565199,106.394389 36.01767,107.066702 37.9345282,107.066702 C42.3820431,107.066702 46,103.46162 46,99.0359979 C46,94.6050821 42.3820431,91 37.9345282,91 L37.9345282,91 Z" id="6F" transform="translate(36.000000, 101.000000) scale(-1, 1) translate(-36.000000, -101.000000) "></path>
        </g>
    </g>
</svg>