<svg aria-hidden="true" style="position: absolute; width: 0; height: 0; overflow: hidden;" version="1.1" xmlns="http://www.w3.org/2000/svg" xmlns:xlink="http://www.w3.org/1999/xlink">
<defs>
<symbol id="icon-facebook" viewBox="0 0 32 32">
<path fill="#fff" style="fill: var(--color1, #fff)" d="M28 0h-24c-2.2 0-4 1.8-4 4v24c0 2.2 1.8 4 4 4h12.138v-11.474h-3.832v-4.999h3.832v-2.504c0-3.86 2.85-6.884 6.489-6.884h3.532v5.644h-3.16c-0.827 0-1.070 0.475-1.070 1.131v2.612h4.23v4.999h-4.23v11.474h6.070c2.201 0 4-1.8 4-4v-24c0-2.2-1.799-4-4-4v0z"></path>
</symbol>
<symbol id="icon-instagram" viewBox="0 0 32 32">
<path fill="#fff" style="fill: var(--color1, #fff)" d="M29.539 24c0 3.054-2.485 5.538-5.538 5.538h-16c-3.054 0-5.538-2.485-5.538-5.538v-16c0-3.054 2.485-5.538 5.538-5.538h16c3.054 0 5.538 2.485 5.538 5.538v16zM24 0h-16c-4.411 0-8 3.589-8 8v16c0 4.411 3.589 8 8 8h16c4.411 0 8-3.589 8-8v-16c0-4.411-3.589-8-8-8v0z"></path>
<path fill="#fff" style="fill: var(--color1, #fff)" d="M15.973 22.181c-3.408 0-6.18-2.773-6.18-6.181s2.772-6.181 6.18-6.181c3.408 0 6.181 2.773 6.181 6.181s-2.773 6.181-6.181 6.181zM15.973 7.358c-4.766 0-8.641 3.877-8.641 8.642s3.876 8.642 8.641 8.642c4.766 0 8.642-3.877 8.642-8.642s-3.877-8.642-8.642-8.642z"></path>
</symbol>
<symbol id="icon-linkedin" viewBox="0 0 32 32">
<path fill="#fff" style="fill: var(--color1, #fff)" d="M7.317 3.45c0 1.906-1.409 3.45-3.727 3.45-2.181 0-3.59-1.544-3.59-3.45 0-1.952 1.454-3.45 3.681-3.45s3.591 1.498 3.636 3.45v0zM0.182 31.82v-22.197h6.909v22.197h-6.909z"></path>
<path fill="#fff" style="fill: var(--color1, #fff)" d="M10.467 16.724c0-2.769-0.090-5.083-0.181-7.081h5.999l0.319 3.087h0.136c0.909-1.453 3.136-3.587 6.863-3.587 4.545 0 7.954 3.042 7.954 9.578v13.119h-6.909v-12.302c0-2.86-1-4.811-3.5-4.811-1.909 0-3.044 1.316-3.544 2.587-0.182 0.454-0.228 1.089-0.228 1.725v12.801h-6.909v-15.116z"></path>
</symbol>
<symbol id="icon-pinterest" viewBox="0 0 25 32">
<path fill="#fff" style="fill: var(--color1, #fff)" d="M10.184 21.165c-0.837 4.406-1.858 8.629-4.883 10.835-0.934-6.659 1.372-11.659 2.442-16.969-1.825-3.087 0.219-9.3 4.069-7.769 4.736 1.883-4.102 11.477 1.831 12.675 6.195 1.251 8.724-10.801 4.883-14.72-5.55-5.659-16.156-0.129-14.852 7.973 0.317 1.981 2.354 2.582 0.814 5.316-3.552-0.791-4.612-3.606-4.476-7.36 0.219-6.143 5.493-10.444 10.783-11.039 6.689-0.753 12.968 2.467 13.835 8.791 0.976 7.137-3.019 14.867-10.172 14.311-1.938-0.151-2.752-1.116-4.272-2.044v0z"></path>
</symbol>
<symbol id="icon-twitter" viewBox="0 0 40 32">
<path fill="#fff" style="fill: var(--color1, #fff)" d="M40.348 3.787c-1.485 0.643-3.080 1.077-4.755 1.272 1.71-1 3.022-2.583 3.641-4.469-1.6 0.925-3.372 1.598-5.257 1.96-1.51-1.57-3.662-2.551-6.042-2.551-4.572 0-8.278 3.617-8.278 8.078 0 0.633 0.073 1.25 0.214 1.841-6.879-0.336-12.981-3.553-17.062-8.441-0.713 1.193-1.121 2.581-1.121 4.061 0 2.803 1.461 5.275 3.682 6.724-1.356-0.042-2.633-0.404-3.749-1.010-0.001 0.033-0.001 0.067-0.001 0.101 0 3.915 2.854 7.179 6.64 7.921-0.694 0.185-1.425 0.284-2.181 0.284-0.533 0-1.051-0.050-1.557-0.145 1.053 3.209 4.112 5.545 7.733 5.61-2.834 2.167-6.402 3.459-10.28 3.459-0.668 0-1.327-0.039-1.974-0.114 3.663 2.293 8.013 3.631 12.689 3.631 15.226 0 23.552-12.311 23.552-22.986 0-0.349-0.008-0.698-0.024-1.045 1.617-1.138 3.020-2.56 4.13-4.181v0z"></path>
</symbol>
<symbol id="icon-youtube" viewBox="0 0 44 32">
<path fill="#fff" style="fill: var(--color1, #fff)" d="M30.198 16.621l-13.091 8c-0.116 0.071-0.247 0.106-0.38 0.106-0.122 0-0.244-0.031-0.355-0.093-0.23-0.128-0.372-0.371-0.372-0.634v-16c0-0.262 0.143-0.505 0.372-0.634 0.23-0.128 0.511-0.124 0.735 0.013l13.091 8c0.215 0.132 0.348 0.368 0.348 0.621 0 0.255-0.132 0.489-0.348 0.621zM37.633 0.992c-1.103-0.092-2.173-0.191-3.235-0.288-3.916-0.362-7.613-0.704-12.58-0.704-4.799 0-8.823 0.365-12.714 0.719-1.027 0.093-2.055 0.186-3.101 0.273-3.366 0.282-6.003 3.146-6.003 6.524v16.97c0 3.376 2.637 6.241 6.003 6.522 1.094 0.092 2.156 0.189 3.212 0.287 3.945 0.362 7.671 0.705 12.604 0.705 5.072 0 8.685-0.337 12.513-0.694 1.078-0.102 2.169-0.202 3.302-0.298 3.367-0.281 6.003-3.146 6.003-6.522v-16.97c0-3.377-2.636-6.241-6.003-6.524z"></path>
</symbol>
</defs>
</svg>
