<?xml version="1.0" encoding="UTF-8"?>
<svg width="26px" height="26px" viewBox="0 0 26 26" version="1.1" xmlns="http://www.w3.org/2000/svg" xmlns:xlink="http://www.w3.org/1999/xlink">
    <title>Group</title>
    <g id="Symbols" stroke="none" stroke-width="1" fill="none" fill-rule="evenodd">
        <g id="mobilemenu" transform="translate(-239.000000, -14.000000)">
            <g id="Group" transform="translate(240.000000, 15.000000)">
                <path d="M12.5,10.4900181 C14.3659055,10.4900181 15.8842255,9.03448276 15.8842255,7.24500907 C15.8842255,5.45553539 14.3659055,4 12.5,4 C10.6340945,4 9.11615308,5.45553539 9.11615308,7.24500907 C9.11615308,9.03448276 10.6340945,10.4900181 12.5,10.4900181 L12.5,10.4900181 Z M15.9792625,11.1470054 C14.9141667,11.1470054 12.8555368,11.1578947 11.2232481,11.1651543 C10.1399779,11.168784 9.24526708,11.1724138 8.96583561,11.1724138 C8.96469971,11.1724138 8.96318518,11.1724138 8.96167065,11.1724138 C8.25816974,11.1615245 7.57360051,11.430127 7.03821285,11.9346642 C6.38809926,12.5444646 6,13.4591652 6,14.384755 L6,17.4555354 C6,17.753176 6.25406303,18 6.56795014,18 L18.4320499,18 C18.7455583,18 19,17.753176 19,17.4555354 L19,14.1887477 C19,12.7150635 17.9413409,11.1470054 15.9792625,11.1470054 L15.9792625,11.1470054 Z" id="4F" fill="#FFFFFF"></path>
                <circle id="Oval" stroke="#FFFFFF" stroke-width="2" cx="12" cy="12" r="12"></circle>
            </g>
        </g>
    </g>
</svg>